<svg width="48" height="48" viewBox="0 0 48 48" fill="none" xmlns="http://www.w3.org/2000/svg">
  <!-- Background circle -->
  <circle cx="24" cy="24" r="24" fill="#E8EEF7"/>
  
  <!-- Gamepad -->
  <path d="M24 14C19.58 14 16 17.58 16 22V24C16 25.1 15.1 26 14 26C12.9 26 12 25.1 12 24V22C12 15.37 17.37 10 24 10C30.63 10 36 15.37 36 22V24C36 25.1 35.1 26 34 26C32.9 26 32 25.1 32 24V22C32 17.58 28.42 14 24 14Z" fill="#4F7FFF"/>
  
  <!-- D-pad -->
  <rect x="17" y="20" width="2" height="6" rx="0.5" fill="white"/>
  <rect x="16" y="21" width="6" height="2" rx="0.5" fill="white"/>
  
  <!-- Buttons -->
  <circle cx="30" cy="21" r="1.5" fill="white"/>
  <circle cx="28" cy="23" r="1.5" fill="white"/>
  
  <!-- Euro symbol -->
  <path d="M32 30C32 28.9 31.1 28 30 28H28C26.9 28 26 28.9 26 30C26 31.1 26.9 32 28 32H30C31.1 32 32 31.1 32 30Z" fill="#00C853"/>
  <text x="28.5" y="33" font-family="Arial, sans-serif" font-size="10" font-weight="bold" fill="#00C853" text-anchor="middle">€</text>
</svg>
